<svg xmlns="http://www.w3.org/2000/svg" viewBox="0 0 301.5 175.9" x="0px" y="0px"><path d="M151.8 166.7c-29.8 0-60.4-12.9-88.3-37.2-20.8-18.1-32.8-36-33.3-36.8-2-3-2-7 0-10 .5-.8 12.6-18.7 33.3-36.8 28-24.3 58.5-37.2 88.3-37.2 42.1 0 82.8 24.7 120.9 73.5 2.5 3.3 2.5 7.8 0 11.1-38.1 48.7-78.8 73.4-120.9 73.4zm-103.1-79c11.8 15.4 51.4 61 103 61 34.8 0 69.1-20.5 102.3-61-33.1-40.5-67.5-61-102.3-61-51.6-.1-91.1 45.6-103 61z"/><path d="M153.3 31.1c-30.3 0-55 24.7-55 55s24.7 55 55 55 55-24.7 55-55-24.7-55-55-55zM167.8 91c-8 0-14.5-6.5-14.5-14.5S159.8 62 167.8 62s14.5 6.5 14.5 14.5c0 8.1-6.5 14.5-14.5 14.5z"/></svg>