<?xml version="1.0" encoding="UTF-8" standalone="no"?>
<svg width="121px" height="122px" viewBox="0 0 121 122" version="1.1" xmlns="http://www.w3.org/2000/svg" xmlns:xlink="http://www.w3.org/1999/xlink" xmlns:sketch="http://www.bohemiancoding.com/sketch/ns">
    <!-- Generator: Sketch 3.2.2 (9983) - http://www.bohemiancoding.com/sketch -->
    <title>yourselfr + ! + !</title>
    <desc>Created with Sketch.</desc>
    <defs></defs>
    <g id="Page-1" stroke="none" stroke-width="1" fill="none" fill-rule="evenodd" sketch:type="MSPage">
        <g id="yourselfr-+-!-+-!" sketch:type="MSLayerGroup" fill="#148BC3">
            <path d="M11.6305227,71.1844957 C5.44345919,67.9736086 1.80534893,61.3270583 0.716082798,51.2446454 C-0.373183337,41.1622325 -0.118376665,33.3331524 1.48051046,27.7571704 C4.52600974,17.1362522 14.2857318,9.37466864 30.7599694,4.47218689 C47.2342071,-0.430294869 61.3820895,-1.18657935 73.2040412,2.20331074 C114.186807,13.9549297 128.28243,42.1342447 115.491333,86.7421011 C111.303772,101.345864 102.934748,111.445841 90.3840125,117.042336 C77.8332766,122.638831 64.4649382,123.403134 50.2785962,119.335265 C41.0837449,116.698684 34.6976804,108.97682 31.1202112,96.1694412 C27.542742,83.3620624 27.4671019,70.9842921 30.8932886,59.0357592 C32.9490006,51.8666394 36.3315898,46.5148654 41.0411574,42.9802768 C45.7507251,39.4456882 50.8638876,38.4693828 56.3807984,40.0513315 C72.9315308,44.7971777 78.0090466,58.321862 71.6134981,80.6257902 C69.3670851,78.5448665 66.7028094,75.1947413 63.6205911,70.5753141 C60.5383728,65.9558868 57.1583441,63.1188995 53.4804036,62.0642671 C50.8533032,61.3109582 48.0616242,61.875373 45.1052828,63.7575285 C42.1489414,65.639684 40.2139748,68.1738614 39.300325,71.3601369 C36.7116506,80.3879173 43.0358097,87.0863029 58.2729918,91.4554946 C77.4508246,96.9546497 89.6663008,90.5437814 94.9197871,72.2226975 C97.9652864,61.6017794 95.4815666,50.18577 87.4685532,37.974327 C79.4555398,25.762884 69.406853,17.9246695 57.3221913,14.4594485 C48.9154701,12.04886 40.0578922,14.6813033 30.7491919,22.3568574 C21.4404916,30.0324115 15.1873481,39.4460294 11.9895739,50.5979935 C9.8577244,58.0326362 9.73804187,64.894735 11.6305227,71.1844957 L11.6305227,71.1844957 Z" id="!" sketch:type="MSShapeGroup"></path>
        </g>
    </g>
</svg>