<svg>
	<path xmlns="http://www.w3.org/2000/svg" fill-rule="evenodd" clip-rule="evenodd" d="M26.781,22.622c0,0-3.056-0.265-4.989,0.398c-4.747,1.448-7.379,4.2-8.49,7.932  c-1.845,6.193-0.515,12.263,3.861,17.101c0.769,0.85,1.241,1.875,0.976,3.058c-0.262,1.175-1.036,1.544-1.798,2.02  c-1.174,0.735-4.659,2.594-7.56,5.104c-2.662,2.303-3.55,4.329-3.512,7.563c0.053,4.466,0.046,8.914-0.07,13.392  c-0.094,3.629,1.475,4.563,4.605,4.565c0.733,0,2.613,0.015,2.613,0.015l-0.023-3.59l-1.952-0.035  c-1.281-0.03-1.669-0.794-1.618-2.223L8.794,66.133c-0.123-3.146,1.653-5.07,4.215-6.833c0.52-0.358,1.058-0.694,1.598-1.021  c1.352-0.816,2.748-1.457,4.005-2.323c1.432-0.986,2.84-2.37,3.15-4.151c0.382-2.193-0.629-4.745-1.822-6.216  c-3.401-4.195-4.304-7.334-3.457-12.22c0.749-4.286,3.932-7.459,10.301-7.125C26.783,26.244,26.76,22.296,26.781,22.622  L26.781,22.622z M73.607,22.622c0,0,3.055-0.265,4.989,0.398c4.747,1.448,7.379,4.2,8.49,7.932  c1.845,6.193,0.515,12.263-3.86,17.101c-0.769,0.85-1.242,1.875-0.977,3.058c0.262,1.175,1.036,1.544,1.798,2.02  c1.175,0.735,4.659,2.594,7.56,5.104c2.662,2.303,3.55,4.329,3.512,7.563c-0.053,4.466-0.046,8.914,0.07,13.392  c0.094,3.629-1.475,4.563-4.605,4.565c-0.733,0-2.613,0.015-2.613,0.015l0.022-3.59l1.952-0.035c1.281-0.03,1.669-0.794,1.618-2.223  l0.029-11.792c0.123-3.146-1.653-5.07-4.214-6.833c-0.52-0.358-1.058-0.694-1.598-1.021c-1.352-0.816-2.748-1.457-4.006-2.323  c-1.432-0.986-2.84-2.37-3.15-4.151c-0.382-2.193,0.629-4.745,1.822-6.216c3.401-4.195,4.304-7.334,3.457-12.22  c-0.749-4.286-3.932-7.459-10.301-7.125C73.605,26.244,73.628,22.296,73.607,22.622L73.607,22.622z M33.594,31.185  c-0.201-7.243-0.856-14.308,4.939-18.938c1.122-0.897,1.844-1.401,3.3-1.573c1.329-0.158,2.578,0.275,3.824,0.694  c0.056,0.019,0.121,0.004,0.184-0.002c0.617-0.065,1.426-0.662,1.944-0.953C50.8,8.719,52.1,7.361,58.018,8.032  c3.113,0.354,5.276,2.33,7.138,4.489c2.129,2.465,2.935,4.376,3.271,7.655c0.198,1.941,0.131,3.858-0.039,6.18  c-0.173,1.298-0.346,2.596-0.519,3.893l-0.263,1.429c1.053,0.85,1.545,1.935,1.667,3.065c0.269,2.485-1.248,5.189-2.495,6.097  c-0.484,0.484-1.227,1.047-1.71,1.531c-1.306,3.719-2.346,6.388-4.538,9.356c-0.348,0.566-1.204,1.306-1.345,1.967  c-0.124,0.583,0.184,0.915,0.595,1.194c0.629,0.427,1.271,0.706,1.976,0.989c3.327,1.341,6.483,2.065,9.62,3.425  c1.229,0.532,2.455,1.161,3.687,1.962c0.405,0.262,0.817,0.524,1.225,0.811c2.205,1.546,4.298,3.825,4.451,11.02  c0,0-0.004,4.173-0.006,7.304c-0.001,1.878-0.002,3.381-0.002,3.381c-0.019,4.202-5.148,6.801-11.528,8.307  c-6.38,1.505-14.011,1.917-19.034,1.746c-4.239,0.143-10.333-0.128-15.968-1.12c-7.718-1.36-14.573-4.075-14.595-8.934  c0-0.001-0.008-10.685-0.008-10.685c0.154-7.195,2.246-9.474,4.451-11.02c0.409-0.287,0.82-0.548,1.225-0.811  c1.232-0.801,2.459-1.43,3.687-1.962c3.138-1.359,6.293-2.083,9.62-3.425c0.705-0.283,1.347-0.562,1.976-0.989  c0.411-0.278,0.72-0.611,0.595-1.194c-0.446-2.1-1.9-0.367-5.747-11.323c-0.483-0.484-1.226-1.047-1.71-1.531  c-1.22-0.889-2.703-3.503-2.51-5.946C31.299,33.479,31.977,32.118,33.594,31.185z"/>
</svg>